<?xml version="1.0" encoding="UTF-8" standalone="no"?>
<!-- Created with Inkscape (http://www.inkscape.org/) -->

<svg
   xmlns:dc="http://purl.org/dc/elements/1.1/"
   xmlns:cc="http://creativecommons.org/ns#"
   xmlns:rdf="http://www.w3.org/1999/02/22-rdf-syntax-ns#"
   xmlns:svg="http://www.w3.org/2000/svg"
   xmlns="http://www.w3.org/2000/svg"
   xmlns:sodipodi="http://sodipodi.sourceforge.net/DTD/sodipodi-0.dtd"
   xmlns:inkscape="http://www.inkscape.org/namespaces/inkscape"
   width="744.09448819"
   height="1052.3622047"
   id="svg2"
   version="1.1"
   inkscape:version="0.48.4 r9939"
   sodipodi:docname="New document 1">
  <defs
     id="defs4" />
  <sodipodi:namedview
     id="base"
     pagecolor="#ffffff"
     bordercolor="#666666"
     borderopacity="1.0"
     inkscape:pageopacity="0.0"
     inkscape:pageshadow="2"
     inkscape:zoom="1.4685811"
     inkscape:cx="-663.36784"
     inkscape:cy="545.71429"
     inkscape:document-units="px"
     inkscape:current-layer="text2985"
     showgrid="false"
     inkscape:window-width="1440"
     inkscape:window-height="838"
     inkscape:window-x="-8"
     inkscape:window-y="-8"
     inkscape:window-maximized="1" />
  <metadata
     id="metadata7">
    <rdf:RDF>
      <cc:Work
         rdf:about="">
        <dc:format>image/svg+xml</dc:format>
        <dc:type
           rdf:resource="http://purl.org/dc/dcmitype/StillImage" />
        <dc:title></dc:title>
      </cc:Work>
    </rdf:RDF>
  </metadata>
  <g
     inkscape:label="Layer 1"
     inkscape:groupmode="layer"
     id="layer1">
    <g
       style="font-size:40px;font-style:normal;font-variant:normal;font-weight:normal;font-stretch:normal;line-height:125%;letter-spacing:0px;word-spacing:0px;fill:#000000;fill-opacity:1;stroke:#000000;stroke-width:0.40000001;stroke-miterlimit:4;stroke-opacity:1;stroke-dasharray:none;font-family:Segoe UI;-inkscape-font-specification:Segoe UI"
       id="text2985"
       inkscape:export-filename="C:\xampp\htdocs\fwrfc\img\media.png"
       inkscape:export-xdpi="90"
       inkscape:export-ydpi="90"
       transform="matrix(1.1403568,0,0,1.1403568,109.8057,-48.763049)">
      <path
         d="m -739.50786,377.72427 1.61003,-5.96303 -1.61003,-7.6327 0.77519,-4.71079 0,-0.0596 0,-3.57781 0,-0.0596 -0.41741,-2.80262 0,-4.35302 c 0.0596,0.0102 0.0596,-0.0102 0,-0.0596 10e-4,-0.003 -10e-4,-0.0114 -0.008,-0.0224 -0.006,-0.0114 -0.0235,-0.003 -0.0522,0.0224 10e-4,-0.026 -10e-4,-0.0335 -0.008,-0.0224 -0.006,0.0114 -0.0237,0.0187 -0.0522,0.0224 l -3.93561,0.77522 -1.90816,-0.77522 c -0.0497,6e-5 -0.0696,6e-5 -0.0596,0 l -5.00895,-0.4174 -2.44484,2.80263 c -0.0285,0.002 -0.0459,0.0124 -0.0522,0.0298 -0.006,0.0174 -0.009,0.0273 -0.008,0.0298 l -2.38522,5.36673 -0.77519,0.35778 -2.02743,4.65117 -0.71556,0.53669 c -0.002,-0.001 -0.0124,10e-4 -0.0298,0.008 -0.0174,0.006 -0.0273,0.0236 -0.0298,0.0522 l -1.37149,2.08705 -3.93561,-6.91711 -2.38523,-2.56412 c -10e-6,-0.002 -10e-6,-0.0124 0,-0.0298 -10e-6,-0.0174 -10e-6,-0.0273 0,-0.0298 l -2.02743,-3.87597 c 0.0497,-0.0497 0.0696,-0.0696 0.0596,-0.0596 l -0.0596,-0.0596 -1.9678,-1.9678 c -0.0497,5e-5 -0.0696,5e-5 -0.0596,0 l -0.0596,0 -4.94932,0.77521 -2.92187,-0.77521 c -0.0497,5e-5 -0.0696,5e-5 -0.0596,0 -0.0497,5e-5 -0.0696,5e-5 -0.0596,0 l -0.0596,0 -3.16042,1.19261 0,0.0596 -0.41742,7.99048 1.19261,11.98571 -1.19261,4.83006 0.41742,4.83006 0.41742,2.38521 -0.0596,7.21528 c 0.002,0.002 0.0124,0.0124 0.0298,0.0298 0.0174,0.0174 0.0273,0.0273 0.0298,0.0298 l 0.0596,0 3.9356,-0.83482 1.9678,0.83482 c 0.0696,0 0.1093,0 0.11926,0 l 4.94933,-0.41741 0.0596,0 1.55038,0 c 0.0285,-0.002 0.0459,-0.0124 0.0522,-0.0298 0.006,-0.0174 0.009,-0.0273 0.008,-0.0298 l -0.17888,-3.63745 -2.02744,-7.57306 0.41741,-5.54563 0,-0.0596 0.41742,-4.17412 -0.59632,-1.01372 0.11927,-0.83483 1.07335,1.72928 2.44485,4.7108 0.0596,0.0596 3.51819,3.93561 0.0596,0.0596 2.743,2.50447 0,0.0596 c 0.0273,0.002 0.0472,0.0124 0.0596,0.0298 0.0124,0.0174 0.0323,0.0273 0.0596,0.0298 l 1.78891,0 0.0596,-0.0596 3.99524,-4.59154 1.37149,-3.57782 c -2e-5,0.0102 -2e-5,-0.0102 0,-0.0596 0.0285,-0.002 0.0459,-0.0124 0.0522,-0.0298 0.006,-0.0174 0.009,-0.0273 0.008,-0.0298 l 2.68338,-3.99524 0.77519,2.20631 c -0.003,0.0285 -0.0114,0.046 -0.0224,0.0522 -0.0114,0.006 -0.003,0.009 0.0224,0.008 l -0.83482,8.16937 0.4174,10.01791 0,0.0596 0,1.55039 c -3e-5,0.002 -3e-5,0.0124 0,0.0298 -3e-5,0.0174 -3e-5,0.0273 0,0.0298 0.0497,0 0.0696,0 0.0596,0 l 0.0596,0 4.94932,-0.41741 2.98152,0.83482 3.22005,-0.83482 c 0.0497,0.0102 0.0696,-0.0102 0.0596,-0.0596 l 0.41742,-7.99047 0,-0.0596 z m -5.84378,-29.09962 -1.90818,2.44484 -1.90816,2.50448 -0.65593,-3.57782 -0.29816,-1.78891 z m -4.88969,-0.29815 0.47705,2.62373 0.4174,2.62374 -3.16039,-2.62374 z m -28.02628,0.29815 2.74301,0.7752 -1.07336,3.3393 z m 7.69232,0 -1.72928,2.26595 -1.66965,2.32559 -0.95408,-2.56411 -0.41742,-1.25223 z m 27.25108,0.7752 -0.89445,1.84854 -0.89445,1.72928 0,-4.35302 z m 0.23854,0 3.69707,-0.7752 -1.72928,2.26595 -0.89445,1.13299 -0.23852,-0.53669 z m -27.31073,-0.7752 1.84854,1.90816 -5.24747,2.62375 z m -11.50866,8.64639 0.35778,-7.45379 2.98152,-1.07334 z m 41.62201,-7.33452 1.01371,-1.19261 0,4.1145 -0.89445,-0.23852 -1.72928,-0.53667 z m -41.62201,7.81158 3.39894,-8.70604 0.4174,11.3894 z m 36.61305,-4.47227 -2.20631,1.13296 2.20631,-5.42636 z m -32.91597,-0.47705 -0.11926,-3.75672 1.66964,3.93561 -1.01371,5.18784 -0.29816,1.72928 z m 30.11334,-0.3578 2.56412,-3.33929 -1.13298,2.9219 -1.01371,2.3852 -1.43114,-0.65593 z m 6.02268,-0.35776 -2.92189,1.13297 1.7889,-3.69709 z m -33.87006,-0.89447 0.53667,-1.61002 0.0596,0.17889 1.25225,3.51821 -2.38521,-0.41742 z m 9.42159,3.3393 -3.7567,2.98153 1.90816,-6.79787 z m -2.08706,-3.81634 -7.63269,14.54981 0.77521,-4.1145 1.55038,-7.75194 z m -1.84854,6.97676 -5.48599,7.33453 7.2749,-13.83425 z m 18.84321,-4.88969 -0.77519,-1.55039 3.04113,2.50447 -1.43112,0.65593 z m -0.17889,0.0596 0.83482,1.66965 -0.35777,0.23853 -1.43115,0.83482 0.23854,-4.29338 z m -0.9541,-1.49076 -0.11926,4.29339 -2.02743,0.53667 z m 12.46276,1.3715 0.95408,0.23852 -3.33929,3.3393 0.71556,-4.05486 z m -2.08706,1.1926 -0.47704,2.44485 -1.49077,-1.9678 -0.77519,-1.01372 3.04115,-1.13297 z m -34.16822,-0.89445 2.38522,0.35778 -3.69709,6.61898 z m 37.26899,0.0596 0.41742,2.5641 -2.92188,1.31188 -2.20634,0.89445 1.25225,-1.25224 z m -6.91712,1.49075 0.95408,-1.13297 1.43114,1.84853 0.89446,1.19262 -6.08231,1.5504 z m -1.37149,0.0596 2.08705,-1.07334 -3.45856,4.17412 z m -30.35188,5.90341 3.69709,-6.73823 -2.20631,11.62792 z m 30.17299,-5.96304 -2.86226,3.63746 1.43112,-4.35302 z m -2.26597,-0.35777 0.65593,-0.29816 -1.37149,4.17413 0,-3.5182 z m -2.68337,1.55038 1.78892,-1.13298 0,3.63746 -1.37149,-1.84855 z m -13.65535,-1.07334 2.26596,2.44483 -2.44486,3.75673 0.11926,-3.5182 z m -3.99523,3.10077 3.7567,-3.04114 -3.7567,10.37568 z m 3.63744,3.3393 -3.51818,4.05487 0.95408,-2.56411 2.74299,-7.57305 z m 18.78357,-6.02266 -1.3715,2.98152 -1.25222,0.29815 z m 9.06383,0.71556 0,3.39893 -5.24748,-1.13297 z m -16.10021,0.5963 2.02743,-0.53667 -2.20632,6.32082 z m 1.9678,0 0.17889,-0.47704 2.26597,8.0501 -3.04116,-0.83482 -1.55039,-0.47705 z m 2.08707,2.08707 0,0.0596 0.35779,4.41265 0,0.47704 -2.08706,-7.33452 1.72927,2.3852 z m -4.17413,-2.08707 0,0.29816 -0.17888,4.83006 -0.47705,-4.77043 z m 12.04535,0.23852 -1.43114,1.43114 -4.17413,0 z m -12.82054,0.35779 0.53668,5.60525 -2.38523,-1.31187 z m -8.16936,0.23851 3.81634,6.67861 -6.2612,-2.80263 z m -17.88912,0.65594 2.32559,1.61003 1.49075,1.07334 -2.68337,8.76567 z m 11.44903,7.57306 -5.78415,0.1789 5.78415,-7.69232 z m 20.2147,-1.61001 1.13298,-5.66489 4.53191,0 z m -0.47704,-5.24748 1.43112,-0.35778 -1.07333,5.18784 z m 11.86645,0.7752 -0.7752,4.59153 -2.80262,-3.45856 -1.78892,-2.26595 z m -8.0501,4.05486 -3.22005,0.53667 5.54563,-5.54562 -0.89446,3.04115 -0.5963,1.78891 z m 6.0823,-0.7752 1.07335,1.3715 -1.66966,0.41742 -1.72929,0.35779 -1.13297,-6.38046 z m -2.44486,2.14671 -0.53666,-0.29816 -2.08707,-1.25224 1.49076,-4.83006 z m -36.67268,4.05485 -0.71556,0.65594 2.62373,-8.76566 0.65594,2.08707 0.89447,2.80262 z m 9.77939,-3.45856 1.55038,-1.7889 1.9678,-2.3256 0.77521,3.57783 z m 9.89864,-1.31187 -3.63745,0.95409 -2.44485,-3.75672 z m 1.84854,-2.20632 0.5963,-0.47705 1.96781,1.01372 0.17889,0.11926 -0.17889,-0.0596 z m -6.79786,3.04115 -0.53668,-0.0596 -0.35777,-1.61002 -0.3578,-1.7889 1.13299,1.66964 1.19261,1.90817 z m 7.75194,-2.68337 2.14671,0.53669 -2.26597,6.02265 -0.35778,1.01372 -0.41741,-5.60525 -0.17889,-2.20634 z m -1.1926,-0.11926 0.53668,7.39417 -0.53668,-1.55039 -1.25224,-3.81634 z m 5.72451,3.63746 -2.3852,1.61001 0.11926,-3.45856 0.0596,-1.07333 4.53192,1.31186 z m -2.3852,-2.56411 -0.1789,4.29338 -2.32559,2.32559 z m 9.36196,0.23852 2.62373,1.49076 -6.02267,3.57783 z m -4.35302,0.7752 2.32558,-0.47704 1.78892,-0.29816 -2.56411,3.87597 -0.83482,1.19262 z m -7.81157,5.66488 -5.6649,-4.7108 2.50449,-0.65593 1.19261,-0.29815 z m 17.23318,0.17889 -8.4079,-1.3715 9.6005,-4.41264 z m -9.60049,-3.75671 -3.57784,2.32559 3.57784,-4.29339 z m 8.46751,-1.55039 1.61001,-0.35778 -7.93084,3.63745 5.18784,-3.04115 z m 3.93561,6.85748 -2.62374,-1.49075 1.13297,-5.66488 z m -12.70128,-7.15563 -3.63745,4.35301 -0.41742,-0.65593 -0.47703,-0.59629 z m -14.9076,0.5963 1.66966,0.11926 -0.0596,0.59631 -0.17891,3.39893 z m -3.57782,2.20632 -1.01371,-1.66964 4.17413,-0.53668 z m 2.38523,4.59154 -2.3256,-4.41265 3.27968,-2.32558 -0.53669,3.87598 z m 17.05428,-3.99523 -0.47705,-1.55039 0,-1.19261 0.35778,1.84854 z m -14.49019,1.66965 -2.32559,2.32558 0.89446,-6.55934 z m 6.02267,0.53667 -5.84377,-0.5963 0.0596,-1.07334 0.17889,-3.10079 z m -12.34348,-4.47227 -2.98152,1.84853 -2.56412,-1.66964 z m 0.11926,0.0596 -0.17888,0.83482 -2.38522,0.77519 z m -10.19679,4.11449 4.23377,-3.87598 0,11.56829 z m 5.90341,2.44484 -1.49076,-6.32082 2.62374,1.66966 -0.65594,2.5641 z m -1.55039,5.06859 0,-10.97199 0.53668,2.20632 0.95408,3.99524 z m 23.13658,-6.85749 -0.53667,-0.77519 -0.53667,-0.71558 3.63746,-2.32558 z m -16.93502,-2.98153 -2.92189,0 2.44485,-0.83482 z m 0.0596,0.1789 -0.29816,3.87597 -3.04115,-3.87597 z m 15.26537,0.83482 0.23853,0.4174 -3.10079,1.07336 2.26597,-2.32558 z m -17.76985,3.57782 -2.08706,0.41742 1.13298,-4.77043 2.9815,3.99523 z m 30.17297,3.93561 -6.91713,-7.09603 8.46753,1.31188 z m -12.04533,-6.91713 -0.0596,1.96781 -0.11926,2.92188 -3.16042,-3.75671 z m 5.48599,2.92189 -0.47704,-2.86226 4.17412,7.81158 -2.62373,1.49075 z m 1.13298,-0.17889 -1.43113,-2.68337 6.73822,6.97676 -1.7889,0.53667 -0.83482,0.23852 z m -6.6786,1.84853 0.11926,-3.16039 0.0596,-1.31188 1.01373,1.43114 z m 4.23375,3.27968 0.71557,-7.63269 0.83482,5.24748 0.65593,3.81633 z m -7.93084,-6.73823 -3.69708,2.20633 -2.08706,-2.80262 z m -3.9356,2.26596 -4.47229,-0.35779 2.44486,-2.44483 0.65593,0.95408 z m -19.73766,2.02744 1.13297,-4.53192 2.08707,3.81634 2.08706,3.81634 z m 43.82833,-2.68338 -1.49076,5.54563 -1.13297,-7.09602 0.53667,0.29816 z m -20.39359,-0.29815 -1.9678,6.85748 -0.17889,-0.65593 -1.31187,-5.12821 3.81635,-2.26594 z m 3.75672,2.62373 -3.81635,4.41265 0.29815,-4.7108 0.29815,-3.51818 z m 12.40311,1.96781 1.49077,-5.54562 1.07335,7.03637 z m -17.94874,2.5641 1.37149,-5.00896 0.77521,-2.80262 -0.53668,7.81158 z m -11.32977,-6.61897 0.95408,-0.17889 -5.60526,5.60525 1.49077,-4.83006 z m 1.07333,0.11926 -0.35777,5.12822 -0.71556,0.11926 -1.49076,0.23852 0.65593,-1.37149 z m -2.74299,5.48599 -2.98152,0 5.54563,-5.48599 z m 6.61897,-5.42636 4.47229,0.41741 -1.07335,3.39894 z m 6.08231,6.32082 -2.56411,-2.44484 0.53667,-1.66964 0.59631,-1.61004 z m -20.9899,0.71558 -0.35778,-4.59155 5.3071,3.04114 -3.69708,1.13298 z m 38.99826,2.14668 -2.56409,-4.41265 0.83482,-0.23852 1.72927,-0.47704 z m 0.23853,0.11926 0,-5.24747 2.62374,1.49075 z m -7.63268,4.94932 -0.35779,-9.4216 0.7752,0.53667 1.43112,1.01372 -1.66964,7.21528 z m 2.02743,-7.87121 2.5641,-1.49075 -2.02744,4.29338 -2.32557,4.77043 z m 2.80263,-1.37149 2.62373,4.5319 -3.75671,4.1145 z m -27.31072,0.47703 1.49076,-0.29815 -1.84854,4.77044 -0.35779,-4.35302 z m 23.91179,8.8253 -1.3715,0.29816 4.47227,-9.30235 -1.07333,8.52716 z m -22.77882,-7.63269 0.41742,-1.19261 0,5.12822 -1.78891,-0.35779 z m -2.02743,-1.07334 -0.5963,1.90817 -1.25225,3.63745 -0.23852,-1.13298 -0.89445,-4.41264 z m 2.56411,0.0596 1.78892,6.85749 -1.78892,-1.84854 z m 32.26003,2.20632 -3.69708,1.49076 2.56411,-3.69708 z m -42.63572,1.49076 -0.41741,-2.1467 4.77043,-1.49075 -1.43113,1.25224 z m 2.68338,-2.02744 1.90817,-1.55038 -0.53668,1.55038 -1.37149,4.47229 -2.62375,-2.26596 z m 1.19259,1.07335 0.83484,-2.62373 1.07333,5.66488 -2.9815,0.41742 z m 4.35303,1.84854 -2.1467,1.07335 1.78891,-5.42636 z m 31.66373,4.41266 -0.71557,1.72927 -0.29815,-5.66488 -0.0596,-1.13298 3.81634,-1.55039 z m 2.74299,-6.32083 -0.35777,7.51343 -3.04116,0.7752 2.02744,-5.00896 z m -42.63572,8.10974 0,-6.73823 2.62375,2.20631 z m 34.94341,-2.62373 2.98151,-3.27968 0.65593,-0.71556 -0.77519,2.62373 -0.47703,1.78891 z m 2.44485,0.47703 1.01371,-3.45856 0.23852,-0.7752 0.41741,6.44009 z m -30.35187,0.7752 -0.89445,1.1926 2.20632,-5.84377 1.78891,0.35778 z m -1.07336,1.25223 0.0596,-4.17413 0,-0.5963 2.20632,-1.07334 -0.77519,1.9678 z m 0.11927,0.29816 2.08707,-2.86225 2.08706,-2.80265 0.47704,3.93561 0.11926,1.3715 z m 6.32083,-0.83483 -1.84856,-4.7108 1.7293,1.66965 z m 0,0.47704 -1.43113,0 -0.53668,-5.06858 z m -8.46752,-0.53666 -1.13297,-3.75673 2.9815,-0.35778 z m 0.0596,0.17888 1.1926,-2.68337 0.65593,-1.37149 0,4.77043 z m -0.17891,-0.0596 -3.7567,0.77521 2.62374,-4.47229 z m 27.66851,0.35778 3.27967,-2.20632 0.83483,1.19261 0.41741,0.65593 z m 4.23375,-1.01371 -0.83482,-1.19261 1.3715,0.23852 0.95409,0.11926 -0.53667,0.71557 -0.53668,0.71556 z m -4.5319,1.01371 0,-1.43112 3.16041,-0.71557 -1.43113,1.01372 z m 7.75195,0.41743 -2.68337,-0.77521 1.07336,-1.43112 0.53666,0.71556 z"
         style="font-size:48px;text-align:start;text-anchor:start;stroke:#fefefe;stroke-width:0.49692628000000000;stroke-miterlimit:4;stroke-opacity:1;stroke-dasharray:none;font-family:POLYA Regular;-inkscape-font-specification:POLYA Regular"
         id="path3758"
         inkscape:connector-curvature="0"
         inkscape:export-filename="C:\xampp\htdocs\fwrfc\img\media2white.png"
         inkscape:export-xdpi="122.92299"
         inkscape:export-ydpi="122.92299" />
      <path
         d="m -700.19217,386.7881 0,-3.69709 -0.41741,-1.55039 0.77519,-2.92189 0,-0.0596 c -3e-5,-0.002 -3e-5,-0.0124 0,-0.0298 -3e-5,-0.0174 -3e-5,-0.0273 0,-0.0298 l -0.0596,0 -2.38522,0 -0.0596,0 -5.12822,0.7752 c -0.002,0 -0.0124,0 -0.0298,0 -0.0174,0 -0.0273,0 -0.0298,0 l -3.16042,0.5963 -4.59153,-0.7752 c -0.002,2e-5 -0.0124,2e-5 -0.0298,0 -0.0174,2e-5 -0.0273,2e-5 -0.0298,0 l -6.49971,0.41741 -0.59631,-3.51819 0.77519,-2.98152 5.54564,0.41742 c 0.0696,1e-5 0.10929,1e-5 0.11927,0 l 5.66488,-0.59631 3.93561,0.23853 c 0.0497,10e-6 0.0696,10e-6 0.0596,0 l 0.0596,0 2.20631,-0.41742 c 0.002,-0.0285 0.0124,-0.046 0.0298,-0.0522 0.0174,-0.006 0.0273,-0.009 0.0298,-0.008 l 0.95409,-1.90817 0.41741,-4.47228 c 0.0261,-0.031 0.0335,-0.0584 0.0224,-0.082 -0.0114,-0.0237 -0.0186,-0.0361 -0.0224,-0.0373 l -1.61002,-2.3852 -0.0596,0 -1.78891,0.35777 -9.71975,-0.0596 c -0.002,2e-5 -0.0124,2e-5 -0.0298,0 -0.0174,2e-5 -0.0273,2e-5 -0.0298,0 l -5.54562,0.65594 -0.5963,-2.32558 0.5963,-3.93561 5.96303,-0.29815 4.35303,-0.65593 6.44008,0.59631 4.41265,-0.83484 c 0.002,4e-5 0.0124,4e-5 0.0298,0 0.0174,4e-5 0.0273,4e-5 0.0298,0 -4e-5,-0.0497 -4e-5,-0.0696 0,-0.0596 l -0.5963,-1.43112 0.29815,-3.87598 c -3e-5,-0.002 -3e-5,-0.0124 0,-0.0298 -3e-5,-0.0174 -3e-5,-0.0273 0,-0.0298 l 0,-0.0596 0,-2.38521 c 0.001,-0.002 -10e-4,-0.0124 -0.008,-0.0298 -0.006,-0.0174 -0.0237,-0.0273 -0.0522,-0.0298 l -1.49077,-1.01372 -4.88969,0.35778 -8.70604,-0.35778 -6.26118,0 -7.15566,0.41741 -3.99523,-0.5963 c -0.0571,0.002 -0.0919,0.0124 -0.10441,0.0298 -0.0124,0.0174 -0.0174,0.0273 -0.0149,0.0298 l 1.19261,5.84378 -0.95408,7.93084 c -0.026,0.0273 -0.0335,0.0472 -0.0224,0.0596 0.0114,0.0124 0.0186,0.0323 0.0224,0.0596 l 0.59631,3.87598 -0.83484,5.00896 0.41742,5.84377 -0.41742,3.75672 c 0,0.0497 0,0.0696 0,0.0596 l 0,0.0596 1.19261,4.11449 -1.19261,3.81634 0.0596,0.0596 1.78891,0.4174 0.0596,0 12.58201,-0.83482 4.77043,1.01371 0.0596,0 3.57783,-0.4174 6.79786,0 3.99523,0 c 0.0285,-0.002 0.046,-0.0124 0.0522,-0.0298 0.006,-0.0174 0.009,-0.0273 0.008,-0.0298 z m -32.61782,-38.52123 3.69708,0.53667 1.01372,2.92188 z m -0.11926,0.0596 4.94932,3.63746 -2.32559,3.04115 -0.53666,-1.31188 z m 11.21052,0.11926 5.66488,0 -3.81634,1.84855 z m 6.6786,0.53667 1.31186,1.07336 -5.84378,0.23852 3.87598,-1.84855 z m 12.7609,-0.53667 -2.32559,2.56411 -1.13297,-1.19261 -1.01372,-1.07335 z m -13.11869,0 7.93085,0.29815 -6.02268,1.31188 -0.47703,-0.41742 z m -6.8575,0 -5.60525,3.39893 -1.13298,-3.04115 z m 2.26597,1.90818 -5.24748,4.47228 1.43113,-2.743 1.90818,-3.63746 z m 17.76985,-1.72929 0.11926,-0.17889 1.25224,2.743 0.17889,0.53667 -3.75671,-0.71556 z m 0.29815,-0.0596 1.25224,0.83483 0,1.90817 -1.07335,-2.38522 z m -20.15506,0 -3.39894,6.44008 -2.26596,-3.04114 z m 15.14611,0.23852 2.14669,2.20632 -4.59154,0 z m -0.29815,0 -2.32559,2.20632 -2.14669,-0.47705 -1.43113,-0.35777 z m -25.64107,0.11926 2.38522,6.02267 -1.37151,-1.07335 z m 13.23794,1.49075 6.0823,-0.17888 0.17889,1.13297 0.41741,2.26596 z m 6.55936,2.08706 -0.3578,-2.26594 3.63746,0.89445 -1.49076,1.25223 -1.5504,1.19262 z m 0,1.25225 -5.54564,1.72928 -0.5963,-2.50447 -0.53668,-2.50449 z m -8.46753,4.47228 -1.01372,-0.83482 -2.80262,-2.26596 5.36674,-4.59155 z m 1.43113,-1.37149 -1.25223,1.25223 1.49076,-7.4538 1.07334,4.88969 z m 15.32501,-5.6649 -6.20156,5.96303 1.49076,-5.96303 z m 0.29815,0.0596 2.32559,1.07333 -1.84855,1.43113 -0.17889,-1.01371 z m -5.54563,5.1282 5.30711,-5.1282 0.5963,2.56409 -6.61897,3.27968 z m 9.12346,-4.53191 -1.13298,0.41742 -0.89445,-0.41742 -1.13299,-0.53666 1.25225,0.17888 z m -8.8253,-0.29815 -1.37149,5.60525 -1.66967,-3.39893 3.10079,-2.44483 z m 9.06382,0.35778 -0.23852,3.45857 -0.29816,-0.77521 -0.71556,-2.20632 z m -24.9255,3.22005 -2.62374,2.20631 -1.49076,1.19261 0.41741,-1.49075 1.43113,-4.94932 z m -4.65117,0.0596 2.20632,-2.92188 -1.78891,6.08229 z m 27.25109,-0.71557 -0.9541,-0.5963 0.9541,-0.71556 0.89445,-0.71557 1.07334,3.16041 z m -10.85274,0.59631 -1.66965,2.80263 -1.84855,-1.37151 -1.1926,-0.89445 5.48601,-1.72928 z m -1.49076,2.86226 1.61002,-2.68338 0.83482,-1.37149 1.66967,3.39893 z m 4.47228,-0.59631 6.73823,-3.33929 -0.41741,2.56409 -0.17889,1.31188 z m 6.85749,-3.27966 3.5182,3.04115 -4.1145,0.77519 z m -28.74184,7.33452 0.89445,-7.33452 1.49076,1.13297 -1.19259,3.04115 z m 32.31966,-4.47226 -1.72927,-1.49077 -1.1926,-1.01372 2.44484,1.43113 z m -29.27851,1.84854 4.1145,-3.45858 -0.41741,5.36674 z m 3.81635,1.84853 0.29815,-3.1604 0.17889,-2.14671 3.75671,3.04116 z m -6.38046,-0.11926 1.90817,-5.00895 0.35779,2.56412 0.11926,0.65592 -2.80263,2.98153 z m 16.57725,-2.5641 -5.60525,0.35778 2.62373,-2.56411 2.26596,1.66966 z m -5.96304,0.5963 -1.9678,3.33931 -2.20632,-1.13299 z m 0.0596,0.17889 -0.53667,3.57783 -1.31186,-0.35778 z m -11.15087,3.22005 2.92188,-3.04115 3.22005,6.4997 z m 6.26118,3.33929 -3.16041,-6.32081 3.57783,1.84854 z m 0.11926,0 0.35779,-3.51818 0.11926,-0.89446 2.1467,1.13297 z m 3.75672,-1.84854 0.95408,1.25224 -2.62373,0.47704 -1.96781,0.29815 0.7752,-0.95408 1.84855,-2.44485 z m 0.47704,-1.01371 0.47704,2.02743 -0.35777,-0.47705 -1.3715,-1.84854 z m -10.67383,-0.29816 6.0823,3.39893 -5.486,0.35778 z m 26.89329,2.08707 1.61003,-0.35778 1.3715,2.08705 z m -10.01788,0 -0.23854,2.20633 -3.3393,-1.07336 -1.61002,-0.53667 z m 1.37149,0 7.99046,0.0596 -1.7889,0.83482 z m -0.89447,0.0596 3.39894,0.47704 3.39893,0.47704 -3.22004,1.25224 -1.37149,-0.83482 z m 12.34349,1.7889 -4.94932,-0.89445 1.9678,-0.89445 z m -12.64164,-1.7889 2.74301,1.66964 0.89445,0.53668 -3.93561,0 0.11928,-1.13298 z m -10.43531,1.3715 4.65116,-0.77519 0,4.17412 -1.55038,-1.13299 z m 4.77043,-0.71557 2.86226,2.74301 -2.86226,1.37149 z m 5.12821,1.61002 -0.47705,0.23852 -1.66964,0.83484 -2.743,-2.62375 z m 10.67385,1.07336 -2.86226,1.43112 0.11926,-1.84855 0.11926,-1.90817 5.3071,0.95408 z m -2.86226,-0.41743 -0.11927,1.78892 -3.10078,-2.44485 1.66965,-0.59631 1.66966,-0.65593 z m -23.61364,-1.13298 5.36674,-0.4174 -2.98153,2.44483 -0.83482,-0.65593 z m 9.48123,2.38523 0.83483,0.5963 -7.75194,-0.89447 3.10076,-2.44483 z m -10.37568,2.3852 0.77519,-4.65117 2.38521,2.02743 z m 30.2326,-4.5319 -0.41742,4.23376 -5.18783,-1.3715 z m -7.69231,6.2612 -5.48599,-5.96305 3.99521,0 z m -6.32084,-3.45857 -1.43112,-1.31188 0.89446,-0.53667 1.07334,-0.53667 -0.23852,1.1926 -0.23853,1.25225 z m 2.56412,1.49076 -2.38522,-1.31187 0.53667,-2.56411 5.3071,5.72453 z m 4.7108,0.29814 -0.83482,1.66967 -0.71558,-2.92189 -0.71556,-2.9219 3.16041,2.50448 z m -7.27492,-1.61001 -4.65116,3.39892 1.01371,-1.61001 2.02744,-3.22005 z m -1.9678,-1.07336 -2.86226,4.41265 0.11926,-2.68336 0.0596,-0.71556 2.86225,-1.31188 z m -3.10077,1.01373 -6.38045,3.04114 -1.37149,-3.99524 z m -7.93085,-0.89445 0.71557,1.96779 0.65593,1.9678 -2.26595,-0.65593 -2.26595,-0.65594 z m 26.47589,2.32558 -2.9815,2.26594 -2.08707,-3.63744 z m -21.5862,3.27967 -1.01371,1.55039 -1.13298,-1.55039 -1.13297,-1.55038 6.44008,-3.04116 z m 18.42581,-0.9541 -3.75672,-0.23852 1.66964,-3.39892 1.07335,1.84854 z m -9.54086,0.3578 -0.59632,-3.93561 5.96303,3.33929 z m -5.48602,-0.41743 4.7108,-3.51818 0.41742,2.62373 0.23852,1.31188 z m -3.63745,2.08707 -0.53667,0.35779 0.83484,-1.19261 3.22002,-4.7108 -0.17888,3.45855 z m 21.82472,-4.17413 -0.83482,1.66967 -1.90818,0.41739 z m -29.63629,0.29816 2.68336,0.77519 1.78892,0.53669 -2.26596,2.98151 -0.77519,-1.43113 z m 0.29815,5.54562 -0.35778,-5.3071 2.20632,4.17412 -1.43113,0.89447 z m 5.12822,-3.10078 1.49075,2.02743 -4.1145,3.33931 1.90818,-6.38044 z m -3.16042,2.08706 c -10e-6,-0.0497 -10e-6,-0.0696 0,-0.0596 l 2.20633,-2.86225 -0.89446,3.04116 -0.83483,2.98151 z m 8.28862,-2.20631 0.53668,-0.29815 -0.71557,2.74299 -3.10078,-0.35779 z m -1.13298,3.81635 -2.743,3.63744 0.41742,-5.24748 3.16042,0.41742 z m -2.68336,1.13296 -0.23853,2.68337 -3.69708,-1.90816 4.1145,-3.39894 z m -6.79786,1.78892 0.35778,-3.33931 1.72928,-1.01371 -0.83483,1.72927 z m 2.26595,-4.29339 0.4174,3.22004 -2.62372,1.31186 z m 8.76567,3.63745 -4.23376,1.49076 3.63745,-4.83006 z m 19.79728,-0.89445 2.1467,0 -1.43112,1.90817 z m 0.35778,1.3715 0.23854,0.5963 -2.9219,0.95408 -3.27967,0.95408 5.42636,-3.81633 z m -1.07334,-1.25224 -8.10974,3.33931 3.5182,-2.62375 z m 2.86226,0.11926 -0.71556,2.5641 -0.0596,-0.11926 -0.59631,-0.65593 z m -2.86226,0 -1.25224,0.95408 -4.17412,2.86227 -2.86225,-0.3578 z m -18.18727,0.71556 5.72451,-0.35777 0.53668,1.07334 z m 9.83903,0.35779 -3.39894,0.35778 -0.53667,-1.01371 z m -15.14614,5.72451 -6.55933,-5.06858 1.31187,-0.65593 1.37149,-0.65593 2.1467,3.51819 z m -2.80262,-4.88969 -0.89446,-1.43113 1.07335,0.53668 2.5641,1.3715 0.23853,4.41264 z m 21.40731,-1.25224 -3.57783,2.68338 0.71556,-2.1467 z m -7.03639,0.89445 -0.95409,1.31187 -0.95409,1.25225 -4.83006,-3.27968 z m -7.2749,-0.71556 -3.93561,6.0823 -0.29816,-4.5319 z m 5.18784,3.33931 -4.94932,2.02743 0,-5.36674 z m -5.06858,2.08706 -3.93561,0.77519 1.31188,-2.02743 2.62373,-4.05487 z m 7.51343,-4.71081 3.63744,-0.35777 -0.23852,0.71556 -0.53667,1.49075 -0.95408,-0.5963 z m -0.89447,0.89446 0.65594,-0.83483 2.98152,1.84854 -4.83006,0.65595 z m 7.57307,1.37151 6.14194,-1.90818 -1.07336,2.20633 z m -24.09068,2.02743 -1.13297,-3.93561 6.61896,5.06858 z m 31.00781,-3.22005 0.0596,0.0596 -1.72928,1.31187 1.07335,-2.02743 z m 0.47703,1.49077 -2.02742,0 1.25222,-0.95408 0.41743,-0.3578 z m -10.97199,-0.53669 2.98153,0.41743 -1.01372,2.98151 -0.47704,1.43112 z m -1.84853,0.23854 1.49075,-0.17891 -3.33929,2.56412 -0.77521,-0.95408 -0.71556,-0.95409 z m 0.4174,3.10077 -1.13297,3.16042 -0.11927,-0.47705 -0.95408,-3.27968 3.27966,-2.56409 z m 1.31187,-3.10077 1.49076,4.83006 -3.81634,1.55038 z m 3.22005,0.17889 5.3071,0.29815 -6.79786,4.23376 z m 7.75195,0.29815 -4.65118,3.27966 2.50448,-3.27966 z m -21.04954,1.9678 4.83006,-1.9678 1.49078,1.9678 z m 16.21948,1.61003 4.83006,-3.39894 -2.62375,4.47228 -0.77519,-0.35778 z m 4.94931,-3.33931 0,3.33931 -2.50447,0.95408 z m -9.18307,4.05487 6.49971,-4.05487 -0.35778,0.53668 -2.14669,2.80263 z m -20.0358,0.47704 -1.66967,0.95409 -0.53667,-3.99524 5.48599,1.13298 z m -3.39894,0.5963 1.07334,-3.39893 0.53668,3.75672 z m 14.31129,-0.47704 -3.04115,-2.80264 6.38044,0 z m -0.35778,-0.0596 -6.73824,-2.02743 3.81635,-0.71558 1.72927,1.61004 z m 0.53667,0.11927 2.98151,-2.44484 0.41743,-0.35778 1.07334,3.7567 z m -12.46276,0.77521 4.83007,-2.86226 6.97676,2.08705 z m 21.1688,-0.23854 4.29339,-1.7889 2.14669,0.95408 z m 9.48123,-1.72927 0.65594,1.72927 -3.22005,-0.77519 0.47705,-0.17889 z m -5.78416,0.0596 -4.05485,1.66964 0.35778,-1.01371 z m -7.2749,2.08705 3.3393,-1.37149 -0.17888,0.65593 -0.11926,0.35779 z m 11.32977,-0.83482 1.96781,0.47705 -3.27967,0 0.35778,-0.7752 z m -1.49075,0.47705 -5.66488,0 5.96302,-0.71556 -0.17888,0.47703 z"
         style="font-size:48px;text-align:start;text-anchor:start;stroke:#fefefe;stroke-width:0.49692628000000000;stroke-miterlimit:4;stroke-opacity:1;stroke-dasharray:none;font-family:POLYA Regular;-inkscape-font-specification:POLYA Regular"
         id="path3760"
         inkscape:connector-curvature="0"
         inkscape:export-filename="C:\xampp\htdocs\fwrfc\img\media2white.png"
         inkscape:export-xdpi="122.92299"
         inkscape:export-ydpi="122.92299" />
      <path
         d="m -654.8437,366.75229 -1.19261,-5.60527 c -3e-5,-0.002 -3e-5,-0.0124 0,-0.0298 -3e-5,-0.0174 -3e-5,-0.0273 0,-0.0298 l -2.44484,-4.53191 c 0.026,-0.002 0.0335,-0.0124 0.0224,-0.0298 -0.0114,-0.0174 -0.0186,-0.0273 -0.0224,-0.0298 l -0.17889,-1.37149 0,-0.0596 -7.57306,-4.59155 c -0.002,6e-5 -0.0124,6e-5 -0.0298,0 -0.0174,6e-5 -0.0273,6e-5 -0.0298,0 l -5.06859,-1.7889 -11.56829,-0.83482 -0.0596,0.0596 -3.10076,1.19261 -1.19262,-0.83482 -0.0596,0 -5.78415,0.41741 -0.0596,0 -1.90817,0 c -0.0696,4e-5 -0.1093,4e-5 -0.11926,0 l 0,0.11926 1.3715,5.54562 0,6.79786 c 0.002,0.0285 0.0124,0.046 0.0298,0.0522 0.0174,0.006 0.0273,0.009 0.0298,0.008 l 0.77521,5.54563 -0.77521,5.54562 -0.0596,0.0596 0.83483,11.2105 0,0.0596 0,4.7108 0,0.0596 c 0.002,0.002 0.0124,0.0124 0.0298,0.0298 0.0174,0.0174 0.0273,0.0273 0.0298,0.0298 l 5.00894,-0.41741 3.75673,1.1926 0.0596,0 c -0.0102,0 0.0102,0 0.0596,0 l 2.32558,-0.77519 5.54562,0.35779 3.33931,0 0.0596,0 3.10079,-0.89446 c 0.002,0 0.0124,0 0.0298,0 0.0174,0 0.0273,0 0.0298,0 l 5.18784,-2.08707 0.0596,0 5.48599,-4.59153 0.0596,-0.0596 2.50448,-4.94933 c 0.0497,0.0102 0.0696,-0.0102 0.0596,-0.0596 l 1.61001,-4.77043 c -3e-5,-0.0497 -3e-5,-0.0696 0,-0.0596 z m -16.87539,-17.94875 -9.95828,4.23376 -0.41741,-1.66966 -0.77521,-3.33929 z m -14.31129,0.35778 2.92187,-1.07334 -1.84854,3.69707 -0.23851,-0.53666 z m 2.14668,0.83483 0.89445,-1.78891 1.13299,4.83006 -2.98152,-1.13299 z m -3.63744,-1.55039 -4.59154,4.94932 -0.65595,-3.04115 -0.29815,-1.55039 z m 0.23852,0 1.07335,0.71556 -1.7293,3.39893 0.41743,-2.62373 z m -0.59632,2.68336 -0.35777,1.96781 -2.1467,1.07335 1.13298,-2.14669 1.78892,-3.22005 z m -7.15563,-2.32558 1.84853,0 0.29817,1.49076 0.53667,2.80263 -2.02744,-3.22005 z m 15.02685,6.97675 8.58677,-6.97675 4.35303,2.5641 z m -7.69233,-6.91712 -2.86225,5.36674 -1.49075,-0.71557 z m 6.08231,4.29339 9.71976,-4.1145 -8.40789,6.79786 -0.65594,-1.3715 z m 10.91236,-4.1145 4.29339,1.55039 -0.47704,0.71557 z m -23.01734,5.18785 -1.25222,-5.00895 2.68337,4.29338 z m 7.99048,-3.87598 0.71556,1.55038 -2.9815,1.13299 1.84854,-3.69708 z m 19.14135,0.65593 0.29816,-0.35778 6.38044,3.87597 -6.91711,-3.16041 z m 1.07335,2.50448 3.27968,4.53192 -6.38047,-4.77043 1.61004,-1.78893 z m -13.29758,2.02743 11.5683,-3.93561 -0.71556,0.77519 -0.83482,0.83484 z m 19.97619,-0.35778 -2.98153,3.16041 -1.19259,-1.72929 -3.63747,-5.00895 z m -26.05849,-3.1604 2.98153,1.13297 -3.69709,1.49075 z m -0.17888,0.0596 -0.71557,2.5641 -2.20631,-1.49076 z m -0.83483,2.68337 -5.96303,5.66488 3.75672,-7.15564 1.13296,0.71557 z m 5.486,1.13297 -6.55935,1.84854 5.24748,-4.47227 z m 0.71556,0 10.91237,-2.56411 -0.17889,1.25224 -0.23853,1.31187 z m -11.32977,0.65593 0.53667,-2.14669 2.14669,-1.01372 -3.51818,6.6786 z m 22.06325,-1.43112 0.29815,-1.72929 6.38045,4.77043 -6.79787,-2.26595 z m -13.23795,-1.66966 -4.88969,4.17413 1.43112,-2.80262 z m -9.12345,0.53669 0.71556,0.4174 -2.08707,4.41266 -0.83482,1.7889 1.43114,-6.97676 z m -1.90818,4.59152 -0.41741,1.90818 0,-6.0823 1.37151,-0.71557 z m -0.35778,2.44485 2.74301,-5.9034 -0.29816,1.1926 -1.07334,4.35302 z m 2.02744,-0.71556 2.14669,-2.02744 3.45856,-3.1604 -1.37149,2.74299 z m 32.9756,-3.81635 -2.86226,1.66965 2.68337,-2.86226 0.11926,0.77521 z m -14.72872,2.20632 -6.61896,-2.68335 10.55457,0.0596 z m -0.29813,0 -7.99048,0.3578 0.23853,-0.53669 1.07334,-2.44483 z m 6.20155,0.17891 -5.66488,-0.17891 3.87597,-2.62372 z m -19.55877,-0.9541 6.49972,-1.84853 -0.53668,1.19259 -0.77519,1.78893 z m 18.00839,-1.7889 6.73823,2.26594 -5.00896,0.47706 z m 10.31605,0.5963 -2.02744,6.44007 -0.65593,2.08707 -0.41742,-6.79787 z m 2.44485,4.41264 -4.94933,4.35302 0.47704,-1.61001 2.20633,-7.15565 z m -25.58144,-1.90817 -0.77519,4.53192 -4.53191,-5.6649 z m -10.25642,1.5504 4.47228,-2.62375 -2.62374,4.1145 -2.62373,4.1145 z m 9.36197,3.10078 -2.26597,0.53667 -1.13296,0.23852 -1.13298,-6.44009 z m -4.65117,-5.60527 1.07334,6.32083 -2.56411,-1.49077 z m -2.743,4.1145 2.50448,-3.87598 -1.43114,4.59154 -3.45857,3.10078 z m 28.32442,-2.14669 0.29816,5.30711 -2.5641,-2.9219 -3.10078,-3.63744 5.24746,-0.47706 z m -12.70126,18.42579 -3.45856,-0.17889 -0.0596,0 -3.69709,0.17889 0.83482,-7.09602 -1.61001,-7.63269 0.77519,-4.7108 8.34825,-0.4174 2.74299,1.90816 0,0.0596 2.20634,2.20632 1.49076,4.59155 -1.49076,7.45378 -2.62374,1.96781 -0.11926,0.0596 -0.0596,0.0596 z m 6.85749,-19.67802 -2.92189,1.66964 -2.50447,-1.7889 z m -0.71556,3.81634 -2.08707,-2.02743 2.44485,-1.43114 0.53667,-0.29814 -0.29814,1.25223 z m 6.79786,2.92189 -1.19261,0.77519 -1.1926,0.77519 -3.16041,-7.8712 z m -6.73823,-2.80264 0.89445,-3.51818 0.23853,3.57781 0.17889,3.93561 z m 4.23376,4.41265 -2.68338,0.11926 -0.47704,-8.05009 z m -28.92073,-1.07334 -0.71558,-5.06859 0.47704,-0.11926 0.9541,-0.17888 -0.65593,4.83006 z m 34.58561,3.63745 -1.9678,-2.743 -0.95409,-1.37149 5.00896,-4.41266 z m 2.20633,-8.34825 1.13296,5.18784 -3.16039,3.16041 0.0596,-0.23851 z m -32.91598,3.75671 0.17889,-2.02744 1.37151,0.71557 1.31187,0.7752 -1.3715,2.98151 -2.02744,4.47228 z m -3.81633,1.49075 3.7567,-3.39893 -2.98151,9.48123 z m 3.39892,-1.72927 0.41741,-1.31186 -0.71557,8.94454 -2.20631,0.53669 z m 1.90818,2.98151 1.49076,-3.22002 3.3393,-0.77521 -2.56411,3.16041 -4.1145,4.94932 z m 3.99522,0.71557 -0.23852,1.13298 -5.66488,2.62374 6.79787,-8.28862 z m 0.53667,-1.72928 0.53669,-2.74299 1.49075,7.09601 -2.62374,-1.49076 z m 20.51286,6.73824 -0.17889,1.13297 -1.13297,-7.4538 2.32558,-1.55039 z m 3.16042,-5.06859 0.95408,1.43113 -4.1145,5.12822 1.25224,-9.30235 z m 4.41263,-1.78891 0.1789,4.35302 -3.39892,-1.13298 z m -38.70011,5.36673 0.71558,-5.00895 0.11926,1.13299 0.5963,4.83006 -0.41743,-0.29817 z m 26.95293,-4.65116 2.68338,-0.1789 -1.49077,7.51343 z m 3.93561,7.8712 -2.62374,-0.23851 1.49077,-7.45381 0.11927,1.01372 z m -4.7108,-4.17412 0.65594,-3.27968 0.11926,0.47706 1.13298,6.73823 -2.62373,-0.29816 z m -22.12287,1.43112 5.72451,-2.68336 -1.49075,5.72452 z m 7.87121,5.54564 -1.01371,-4.59154 -0.83484,-3.63746 2.56411,1.49076 z m 26.95293,-6.91713 -1.55039,4.53191 -1.84853,-5.66489 z m -30.47112,4.53191 1.49075,-5.60525 1.90818,8.22899 z m 28.8611,0.23852 -2.44484,4.59154 0.53668,-10.13716 z m -5.42637,1.01372 -0.77519,-1.61003 0.65594,-0.83482 3.3393,-4.11449 -2.62374,7.87121 z m 2.80265,3.75671 -2.08708,-2.26595 2.62374,-7.87122 z m -33.03524,-5.78414 -1.43114,-2.56412 1.25225,0.77521 1.3715,3.81634 z m -0.83482,8.05009 -0.77521,-10.55458 0.95408,1.66966 2.08707,3.69709 z m 1.9678,-10.07752 1.13296,-0.29817 0.89446,4.05487 0.23852,1.19262 -3.33929,-4.59154 z m 3.63745,4.23375 -1.19262,0.89446 -1.13297,-5.30712 4.17413,2.98153 z m -3.69708,-0.83483 -0.89446,-2.62373 3.1604,4.35302 -1.78891,-0.35778 z m 25.10438,-1.13297 -4.71081,1.49075 2.3256,-1.7889 0.41742,0.0596 z m 0.41741,0 2.62374,0.23851 -5.12821,7.21529 z m -5.54562,1.84854 5.36673,-1.78891 -2.5641,7.63269 z m 9.2427,0.4174 0.41742,1.01373 -6.4997,4.23376 1.13296,-1.61003 3.99524,-5.54562 z m -23.67325,4.83006 -2.26597,-3.10077 -0.71556,-1.01372 1.01373,-0.7752 1.9678,-1.49075 z m 0.17889,0.0596 0,-6.44008 3.39893,2.68336 z m 13.9535,3.9356 -4.11449,-3.39893 4.23376,-5.72451 0.65593,5.1282 0.65594,5.18785 z m -0.0596,-9.06382 -2.32557,3.10079 -1.61002,2.20632 0.95408,-3.93561 z m 1.66967,10.07754 -1.13298,-8.58678 -0.1789,-1.31187 2.743,5.72452 z m -23.01734,-4.35302 2.20632,-5.12821 1.84855,0.35777 z m 3.75673,-0.23852 0.47703,-4.35302 3.04115,4.17413 -2.20633,1.7889 -1.61001,1.25225 z m -2.14671,1.78891 -1.72927,-1.13298 1.0137,-1.25224 3.16042,-3.69708 -0.35778,3.27968 -0.41741,3.9356 z m 14.07277,-4.65117 -0.77519,-1.43113 3.27968,0.23852 -1.01372,4.05487 z m 1.37151,2.92189 -5.54564,-2.62375 3.22005,-1.66964 z m -2.62375,-4.29339 -2.98151,1.5504 -0.35779,-1.37151 z m 19.20099,2.44485 -8.70603,1.9678 6.55934,-4.29339 0.11926,0.11926 z m -22.36139,-0.77521 -3.45858,2.08707 2.80264,-3.10078 0.29815,-0.41741 z m -2.56411,1.66967 2.56411,-1.49076 -2.68336,8.34825 -1.13299,-6.0823 z m 3.63746,-0.23853 -0.77521,-1.25223 0.41742,0.17889 5.18785,2.50446 -0.65595,5.30711 z m 4.11448,6.91713 -5.42636,-0.41742 0.11926,-2.5641 0.29816,-5.12821 z m -5.54562,-0.35779 -2.20632,0.71556 1.13297,-3.69707 1.43114,-4.35302 z m 22.59992,-7.03638 -5.24747,4.35302 -1.19261,-0.7752 -2.32559,-1.55039 z m -28.4437,4.88969 -1.55038,-0.29815 1.43112,-1.19261 2.26596,-1.72928 -1.31187,3.3393 z m 3.39894,2.743 -2.44485,-2.62374 1.31187,-3.22004 0.53668,2.86227 z m 11.32977,-0.29816 -3.16042,0.0596 0.11927,-1.07335 0.53668,-4.23376 z m 8.28862,-2.86225 -4.94932,1.9678 0.95408,-2.92189 0.47705,-1.43113 1.78891,1.1926 z m -5.24746,2.08706 -2.9219,0.77519 -2.50447,-5.24747 z m -23.01733,-4.17413 1.72927,1.13298 1.66966,1.13299 -3.39893,2.26594 z m 4.83006,4.23376 -4.65118,0.35778 3.33931,-2.20631 z m -0.29816,-0.65594 -0.83482,-1.19259 2.32558,0.35777 -1.07335,1.43113 z m 3.93561,1.72928 -3.39894,-1.07334 0.53668,-0.71557 0.53667,-0.71556 z"
         style="font-size:48px;text-align:start;text-anchor:start;stroke:#fefefe;stroke-width:0.49692628000000000;stroke-miterlimit:4;stroke-opacity:1;stroke-dasharray:none;font-family:POLYA Regular;-inkscape-font-specification:POLYA Regular"
         id="path3762"
         inkscape:connector-curvature="0"
         inkscape:export-filename="C:\xampp\htdocs\fwrfc\img\media2white.png"
         inkscape:export-xdpi="122.92299"
         inkscape:export-ydpi="122.92299" />
      <path
         d="m -638.31153,368.5412 0.5963,-10.13717 c -10e-6,-0.0497 -10e-6,-0.0696 0,-0.0596 -0.002,-0.0285 -0.0124,-0.046 -0.0298,-0.0522 -0.0174,-0.006 -0.0273,-0.009 -0.0298,-0.008 l -0.77519,-1.37149 -0.5963,-5.36675 0.83482,-3.1604 c -10e-6,-0.0497 -10e-6,-0.0696 0,-0.0596 -0.0497,-0.0497 -0.0696,-0.0696 -0.0596,-0.0596 l -4.23376,0.41742 -5.36673,-0.41742 -1.66965,0.41742 -0.0596,0.0596 -0.7752,2.38522 1.19261,4.83006 -1.01372,10.7931 0.59631,4.83006 0.41741,5.96303 -0.5963,1.37151 0,0.0596 -0.17889,3.3393 c 0,0.0696 0,0.10929 0,0.11926 l 0.35778,5.96304 0.0596,0.0596 4.41265,0.35779 1.55038,0 c 0.0497,0 0.0696,0 0.0596,0 l 0.0596,0 2.98153,0 0.0596,0 2.32558,-0.35779 c 0.0285,-0.002 0.046,-0.0124 0.0522,-0.0298 0.006,-0.0174 0.009,-0.0273 0.008,-0.0298 l 0.17888,-2.74299 0,-0.0596 0,-8.34825 0,-0.0596 0,-2.38523 c -2e-5,-0.002 -2e-5,-0.0124 0,-0.0298 -2e-5,-0.0174 -2e-5,-0.0273 0,-0.0298 -2e-5,-0.002 -2e-5,-0.0124 0,-0.0298 -2e-5,-0.0174 -2e-5,-0.0273 0,-0.0298 z m -11.92609,-17.71023 0.65593,-2.02743 1.3715,-0.35778 z m 11.7472,-2.38521 -0.7752,3.04114 -3.3393,-1.13297 z m -0.3578,0 -3.87597,1.78891 0.11927,-0.95408 0.0596,-0.47705 z m -8.8253,0 4.77045,0.35778 -2.44485,1.07334 z m 2.08707,1.55039 -0.89445,1.25224 -1.84855,2.44484 0.3578,-5.18785 z m -2.50446,-1.43113 -0.17891,2.98151 -0.17889,2.20633 -1.84854,-2.62374 z m 5.30708,1.25223 -0.0596,0.47705 -2.26594,-0.35778 2.44484,-1.07335 z m -2.08705,0.23853 1.84855,0.35777 -5.00895,3.16042 2.68336,-3.57782 z m 2.20633,3.93561 0.17889,3.45856 -5.78416,-3.5182 5.42636,-3.45857 z m 3.3393,-2.38523 -2.98152,5.60525 -0.41742,-6.73823 z m -9.83902,4.05487 -1.07335,-4.1145 1.01372,1.37151 0.71556,1.01371 -0.41741,1.01372 z m 9.89865,-3.81635 0.59629,5.00897 -2.26594,0.41739 -1.31187,0.17891 2.08706,-3.99524 z m -9.0042,2.26597 5.72453,3.45856 -3.81635,3.45855 z m -0.11926,0.0596 0.71556,2.62373 1.01373,3.75671 -2.44485,-4.59154 z m -1.72927,12.40311 0.95408,-10.13717 1.90818,7.45381 -2.56411,2.38521 z m 1.13297,-10.01791 2.50448,4.65117 -0.71556,2.50449 z m 10.3757,0.47705 0.65592,1.1926 -2.92189,-0.47704 -1.07333,-0.17889 z m -3.69709,0.5963 4.35301,0.77519 -1.78891,2.08707 -1.78891,2.08706 -0.5963,-3.69707 z m -1.72928,6.14194 -2.26596,-2.62375 3.75672,-3.3393 z m 2.38521,-1.07336 -2.20632,1.13299 1.49076,-5.84379 z m 3.63744,-3.93559 -3.16039,7.27489 -0.35779,-3.22003 1.5504,-1.78892 z m 0.11928,0.0596 -0.5963,9.54086 -2.62374,-2.02743 z m -9.24271,5.06858 0.17889,-0.65594 0.5963,-1.90817 1.07335,1.31187 1.13297,1.25224 z m 3.27967,0.0596 2.20632,-1.07333 0.17889,1.66964 0.1789,1.61001 -1.25224,-1.07334 z m -4.71081,4.53192 1.43114,-4.47229 2.98151,0 -5.24747,7.15565 z m 6.73824,0.23851 -0.9541,4.77044 -1.13296,-9.36197 2.56411,2.26595 z m -7.75196,2.44485 -0.53666,-4.35303 1.55038,-1.49075 1.19262,-1.07334 -1.43113,4.47227 z m 0.23853,0.17889 5.12821,-6.97675 -1.43113,4.7108 z m 6.44009,2.26595 -2.62375,-4.47227 1.49077,-4.77043 0.53666,4.59154 z m 0.23852,0 1.49076,-7.03638 1.43112,2.743 z m 3.63745,-4.71079 -0.53668,0.35778 -0.65593,-1.19261 -0.71556,-1.37149 1.96779,1.49075 0.47706,0.35779 z m 0.53668,-0.23852 0.35778,5.48599 -0.0596,-0.23852 -1.31187,-4.53191 z m -6.44009,7.51342 -4.59155,-4.59152 1.90817,-1.13299 1.96781,-1.19261 0.29816,2.743 z m 6.79787,-1.49076 -4.53191,-0.77519 1.49076,-2.20632 1.49075,-2.20633 z m -6.8575,-0.71556 -0.47705,-4.41264 2.56412,4.41264 -0.59632,0.71556 -1.25224,1.49076 z m -4.17413,3.51819 -0.35779,-5.72451 4.59155,4.59155 z m 7.03639,-3.3393 3.69709,0.65593 -6.14194,1.43114 1.84854,-2.20633 z m 1.66965,3.51819 -1.13298,1.3715 -3.04115,-2.62372 6.44009,-1.55041 z m -0.47704,0.83483 2.86226,-3.5182 0,2.14671 -2.26596,1.25222 -0.95408,0.53668 z m -3.75672,1.72928 -1.1926,0.41741 1.13296,-4.11449 2.98153,2.62374 z m -4.94932,-1.43113 0.47704,-1.19261 3.75672,-1.01371 z m 2.86227,-0.29815 -3.16042,3.63746 0.17889,-3.10079 4.59154,-2.38521 z m -0.53668,0.95408 2.38521,-2.74299 -0.59631,2.20632 -0.53666,1.78891 -3.63746,1.49077 z m 8.34824,-1.66964 0.71558,-0.35779 -4.77043,7.33454 1.49075,-5.54562 z m -0.29814,8.10974 -3.81634,-0.77521 4.94932,-7.63269 z m 0.4174,-2.3256 0.77521,-5.36673 0,7.2749 -1.07335,0.41743 z m -7.03637,-1.66964 -0.0596,-1.07336 4.17412,-1.55038 -2.74299,5.00894 -1.01373,1.78893 z m 0.47704,4.29338 3.5182,-6.38045 -1.3715,5.3071 z m -4.53191,-3.75672 3.81635,-1.55039 -0.5963,1.66966 -1.7293,5.06858 z m 1.66964,5.36674 2.20634,-6.67859 0.35777,5.18783 z m -1.25224,0.41741 -0.35777,-5.18784 0.17889,0.65593 1.1926,4.23377 -0.35778,0.11926 z m 6.02267,0.41742 0.3578,-3.39894 0.95408,0.17889 2.74299,0.59632 z m -1.37149,-1.5504 -0.59631,-0.71556 2.20634,-1.07335 -0.17891,1.31188 -0.23852,1.96779 z m 6.79787,-1.3715 -0.17889,2.32559 -0.29815,-0.65593 -0.53668,-1.37149 0.53668,-0.1789 z m -0.23852,2.62374 -2.1467,0.35779 1.25224,-2.56411 0.17889,0.47705 z m -5.06858,0.35779 3.93559,-2.50448 -1.1926,2.50448 z m -2.02744,-0.71556 0.0596,0.65593 -1.13299,-0.23853 -1.72928,-0.47703 1.01372,-0.53668 1.55039,-0.89446 z m 1.61001,0.71556 -1.31186,0 -0.29815,-1.5504 -0.0596,-0.47703 z m -2.32557,-0.0596 -3.10079,-0.29817 0.83482,-0.29815 0.65595,0.17889 z"
         style="font-size:48px;text-align:start;text-anchor:start;stroke:#fefefe;stroke-width:0.49692628000000000;stroke-miterlimit:4;stroke-opacity:1;stroke-dasharray:none;font-family:POLYA Regular;-inkscape-font-specification:POLYA Regular"
         id="path3764"
         inkscape:connector-curvature="0"
         inkscape:export-filename="C:\xampp\htdocs\fwrfc\img\media2white.png"
         inkscape:export-xdpi="122.92299"
         inkscape:export-ydpi="122.92299" />
      <path
         d="m -589.71721,388.51737 -1.7889,-6.79786 -2.38523,-3.93561 c 0.0102,0.0102 -0.0102,-0.0102 -0.0596,-0.0596 l -1.96781,-3.57781 0,-0.0596 -3.63744,-7.87122 c 0.003,-0.0285 0.0114,-0.046 0.0224,-0.0522 0.0114,-0.006 0.003,-0.009 -0.0224,-0.008 0.026,-0.002 0.0335,-0.0124 0.0224,-0.0298 -0.0114,-0.0174 -0.0186,-0.0273 -0.0224,-0.0298 l -1.5504,-3.57782 -0.83483,-5.60525 c 10e-4,-0.002 -10e-4,-0.0124 -0.008,-0.0298 -0.006,-0.0174 -0.0235,-0.0273 -0.0522,-0.0298 l -2.32558,-2.743 -0.41742,-5.96304 0,-0.0596 c -0.002,4e-5 -0.0124,4e-5 -0.0298,0 -0.0174,4e-5 -0.0273,4e-5 -0.0298,0 l -3.22002,0.77519 -3.51821,-0.77519 c -0.002,4e-5 -0.0124,4e-5 -0.0298,0 -0.0174,4e-5 -0.0273,4e-5 -0.0298,0 l -3.16039,0.4174 -3.57784,-0.83482 -0.0596,0 c -0.002,6e-5 -0.0124,6e-5 -0.0298,0 -0.0174,6e-5 -0.0273,6e-5 -0.0298,0 l 0,0.0596 -1.61001,8.76567 -2.38522,3.99523 c -0.026,0.0273 -0.0335,0.0472 -0.0224,0.0596 0.0114,0.0124 0.0187,0.0323 0.0224,0.0596 l -1.61002,5.90341 -3.16041,4.77043 c -0.0285,0.002 -0.0459,0.0124 -0.0522,0.0298 -0.006,0.0174 -0.009,0.0273 -0.008,0.0298 l -1.61003,5.60525 -3.51819,5.54562 c -0.0497,-0.0102 -0.0696,0.0102 -0.0596,0.0596 l -1.61002,5.90341 c 0,0.0572 0,0.0919 0,0.1044 0,0.0124 0,0.0174 0,0.0149 0,0.002 0,0.0124 0,0.0298 0,0.0174 0,0.0273 0,0.0298 0.0497,0 0.0696,0 0.0596,0 l 0.0596,0 3.1604,-0.17889 3.5182,0.17889 0.0596,0 c 0.0497,0 0.0696,0 0.0596,0 l 3.57784,-0.41741 0.0596,0 1.13298,-0.35778 c 0.002,-0.0285 0.0124,-0.046 0.0298,-0.0522 0.0174,-0.006 0.0273,-0.009 0.0298,-0.008 l 2.80263,-5.96304 4.7108,-0.41741 4.77043,0.41741 c 0.002,0 0.0124,0 0.0298,0 0.0174,0 0.0273,0 0.0298,0 l 5.54562,-0.41741 1.19261,2.74299 c -3e-5,0.002 -3e-5,0.0124 0,0.0298 -3e-5,0.0174 -3e-5,0.0273 0,0.0298 l 0.7752,4.35302 c 0.002,0.0285 0.0124,0.046 0.0298,0.0522 0.0174,0.006 0.0273,0.009 0.0298,0.008 l 3.16042,0 c 0.002,0 0.0124,0 0.0298,0 0.0174,0 0.0273,0 0.0298,0 l 3.22004,-0.41741 3.75671,0.83482 0.0596,0 2.38522,-0.41741 c 0.002,0 0.0124,0 0.0298,0 0.0174,0 0.0273,0 0.0298,0 -6e-5,-0.0497 -6e-5,-0.0696 0,-0.0596 z m -25.22365,-39.89272 -1.1926,6.61896 -0.29816,1.61004 -1.90818,-9.00419 z m -5.00895,7.8712 1.55038,-8.40787 0.11926,0.53667 1.72929,8.58676 -2.26595,-0.47702 z m 8.22899,-8.28861 -4.47227,8.58678 1.01371,-5.6649 0.41742,-2.50447 z m 3.57782,0.77519 -2.26595,6.44008 -0.77519,-4.77043 -0.35779,-2.38521 z m 3.16041,-0.71556 -5.1282,6.97674 0.71556,-1.96778 1.49077,-4.2934 z m 0.11926,0.11926 0.41742,5.72452 -1.43113,0.4174 -4.29339,1.07335 2.62373,-3.57781 z m -6.32081,2.86226 0.71556,4.41264 -1.66964,0.53667 -0.9541,0.23852 1.49076,-7.8712 z m -2.08707,5.24746 -0.77519,0.17889 -2.20633,0.53667 4.41266,-8.52713 z m 3.04115,-0.71556 5.66489,-1.49076 -2.62373,3.75673 z m 5.78415,-1.43113 0,6.44009 -2.68336,-2.68337 z m 0.11926,0 2.26595,2.62375 -2.26595,3.7567 z m -7.03638,1.72929 0.83482,-0.23853 -1.07335,5.24747 -1.49076,-4.47228 z m 1.07334,-0.1789 2.98153,2.26596 -1.01373,3.75672 -0.83482,3.04114 z m 0.41742,4.7108 0.53667,4.41265 -2.20633,-3.69709 0.47705,-2.26594 0.65593,-2.86227 z m -7.75196,-3.45857 1.13298,0.23854 -1.01372,2.98151 -0.89446,2.743 -0.11926,-0.41741 -1.3715,-6.08231 z m -0.5963,5.78416 1.90817,-5.54562 2.86226,-0.71558 z m -1.78891,-6.20155 0.71556,3.22003 0.7752,3.22004 -3.81636,-2.62374 z m 7.57305,2.32558 0.7752,2.26594 -2.20632,0.9541 -0.41742,0.17889 0.77519,-4.23376 0.29816,-1.43112 z m -5.78414,4.17412 4.88969,-6.38044 -1.13298,5.60525 -2.56411,0.53667 z m 15.92132,-2.86226 -0.17889,3.16042 -0.23854,-0.35779 -1.61001,-2.26595 2.20633,-3.6971 z m 0.35777,-2.74299 0.65594,4.88969 -1.01371,1.07335 0.0596,-1.25224 z m -2.5641,3.3393 -1.25224,3.81634 -0.5963,1.78892 -0.47705,-5.12823 -0.29814,-3.10077 z m -3.27968,-0.35779 0.53669,-2.02743 0.53666,5.48599 0.23853,2.74299 -0.41742,-0.2385 -2.20632,-1.25225 z m -14.19203,2.98153 -0.35779,-2.86227 2.50449,1.72929 1.25224,0.89445 -2.98151,3.04116 z m -1.9678,2.92189 1.49076,-5.60526 0.65593,4.83006 0.11928,0.7752 z m 21.46695,-2.743 -0.9541,0.77519 -2.80262,2.20633 1.25223,-3.75672 0.59631,-1.90818 z m -9.7794,-2.02743 0.53668,-0.23852 -1.84855,5.9034 -0.77519,-4.83006 z m 2.98153,3.63744 2.02744,7.51343 -4.7108,0.77519 -4.35303,-0.77519 2.68336,-5.00895 0.0596,-0.0596 0.0596,-0.0596 1.90818,-6.26119 z m -7.15565,-2.32558 1.84854,-0.41741 -1.84854,3.33929 -1.84855,-2.5641 z m 15.20576,-0.35778 1.43112,3.1604 -2.50447,-2.08705 z m -15.0865,3.45855 1.07335,-1.96779 0.77519,-1.43113 0.47705,2.92189 0.23852,1.96781 z m -2.1467,-2.62372 0.17889,3.45856 0.1789,3.39893 -3.39892,-3.81634 z m 0.11926,0.0596 1.84855,2.56409 -1.49076,3.93561 z m 17.8295,1.84853 0.83482,0.71556 -1.13298,7.15566 -0.23852,-1.49077 -1.1926,-7.87121 z m -5.84378,1.61002 3.69707,-2.98152 -3.7567,7.27491 -0.65593,1.25223 z m 3.16042,-1.61002 0.65593,-1.31187 -1.13299,7.99047 -3.33929,0.71556 z m 1.37149,2.26596 0.89445,5.9034 -2.56411,-1.49076 0.53667,-4.05487 0.53669,-3.63744 z m -7.15565,-2.14669 0.35778,0.23852 2.08707,1.1926 -0.41741,0.53667 -0.41741,0.53667 z m 1.49075,2.62372 0.17891,4.1145 -1.72929,-6.55933 z m -10.37568,2.20634 1.49076,-4.1145 2.62374,1.49075 z m 21.76509,3.69708 -4.59154,-0.41742 1.13298,-7.2749 z m -25.58142,-7.4538 -0.11928,0.71556 -0.65593,3.63746 -0.71557,-2.1467 -0.71556,-2.20632 z m -2.38523,0.17888 0,6.79787 -2.02743,-1.49076 -1.01373,-0.77519 z m 2.44486,0.0596 0.95408,3.51821 0.89445,3.51818 -2.56412,-2.62373 z m 0.23851,0.0596 3.10077,3.39894 0.1789,0.23852 -1.43112,3.39893 -0.47705,-1.66966 z m -2.56411,6.61897 0,-6.55934 0.77519,2.20633 0.71557,2.14669 z m 17.17355,-4.23375 -0.4174,2.68336 -0.11926,-3.81635 0.77519,-0.95408 z m -7.03638,-1.31188 -2.56411,4.83006 -1.49076,-2.26594 z m -4.17413,2.68337 0.41743,0.65594 1.0137,1.61001 -2.92189,1.07336 z m -8.28861,7.51344 -0.83485,-6.67861 3.04116,2.26596 -1.90817,6.73823 z m 3.81633,-6.61898 1.13298,4.77043 -2.62374,-2.62373 z m 0.29815,0.65593 -0.11926,-0.65593 2.56411,2.56411 -1.49076,2.20632 z m -6.55934,4.7108 1.49076,-5.18784 1.07335,8.88493 z m 24.56772,-1.07334 -2.86225,-2.86227 2.20631,-0.53665 1.13298,-0.23854 0.77519,2.02744 1.49077,4.35302 z m 2.86226,2.62374 -2.20633,-6.20157 2.62374,1.49077 z m -10.79309,-4.7108 -0.41743,2.26595 -3.63744,-2.98151 z m 0,0.59631 0.11926,-0.53668 4.41263,-0.77519 -4.77043,2.92188 z m -4.35303,-1.31187 1.49076,4.83006 -4.47228,-3.69709 z m 4.23376,3.04114 4.8897,-3.04114 -0.3578,4.59152 z m 10.7931,2.743 -6.14194,-1.19262 0.11926,-1.07334 0.29817,-3.45855 z m -11.09126,-2.68337 -2.26594,1.84855 -1.49077,-4.83006 z m 11.74719,-2.32558 4.59154,0.35778 -4.94932,4.59154 0.23852,-3.69708 z m -22.42103,8.28863 -0.77519,-8.16937 2.62374,2.62373 z m -0.89445,-7.93085 0.53668,6.14192 0.17889,2.08706 -2.56411,-1.49075 z m 2.98152,2.32558 0.71556,-1.13297 0.77521,-1.13298 4.47227,3.75672 z m 20.03581,2.38522 4.94932,-4.5319 -0.35777,4.5319 z m 6.14193,-0.41741 -1.43112,0.35778 0.35777,-4.23376 z m -0.83482,-3.75672 1.66964,2.98151 -0.65593,0.71557 z m -16.63689,1.49076 4.53191,1.55038 -6.38045,1.84855 z m -2.08706,3.04116 -0.23851,-1.07335 2.02742,-1.66966 -0.53667,1.01371 -1.19261,2.02744 z m -6.61897,-2.02743 1.3715,4.47226 -1.72927,0.41743 -1.66967,0.35776 1.90818,-5.72451 z m 6.0823,4.05485 -4.5319,0.41741 -1.5504,-4.94932 z m 0.47704,-1.66965 -5.78415,-2.743 5.42638,1.31188 z m -5.84378,-2.56411 4.05487,1.84855 1.84854,0.89445 -0.35777,1.43114 z m -11.86644,5.36673 3.3393,-5.24745 0,4.53189 z m 3.51819,-5.18782 2.56411,3.69707 -1.61002,0.47704 -0.95409,0.23852 z m 24.3292,3.99523 -2.98151,-3.3393 6.02266,1.13297 z m -0.23852,0 -4.47228,-1.13298 0.71556,-1.07335 0.77519,-1.13297 z m 12.70127,0.0596 -2.743,-2.743 0.65593,-0.65593 z m -15.86169,-3.39893 -1.49075,2.20633 -4.7108,-0.35779 z m 12.9398,0.77519 0,3.57782 -1.43113,-3.22003 z m 3.16042,3.10078 -1.49078,1.43113 -0.47702,-1.49076 -0.9541,-2.86226 z m -1.61004,1.43113 -1.43112,-0.71556 0,-3.51819 z m -7.75194,-4.17412 4.35302,0 -2.86226,1.43113 z m -1.66966,3.99523 1.55041,-3.93559 1.49075,1.49075 -3.33931,3.27968 z m 3.22005,-2.44484 2.98153,-1.49075 -0.7752,4.41263 z m -3.69707,3.39894 -1.13299,-2.56412 2.92189,-2.20631 -1.43114,3.81633 z m 6.14192,-0.3578 0.29815,-1.90817 0.41742,-2.50446 0.4174,0.95408 1.01372,2.38521 z m -15.74241,-2.74299 -1.90818,0.41741 0.35777,-1.49075 4.59154,0.35778 z m 2.92188,0.77519 0.71556,-1.43112 4.29338,1.07334 z m -4.47229,-0.29815 5.00896,-1.07334 -0.71556,1.43112 z m 14.37092,1.43113 0.35779,-2.02743 1.55038,1.9678 0.71558,1.01372 -2.98152,1.07335 z m -1.31186,1.84855 -1.72929,-0.53667 1.66966,-1.66967 1.61002,-1.61001 -0.53667,3.22005 -0.17889,0.83482 z m -25.93922,3.57781 -0.65594,-2.80262 -0.83482,-3.57782 2.56411,-0.7752 z m 3.87598,-4.88969 -0.29815,4.47228 -2.20633,-6.61896 2.5641,1.43112 z m -0.35778,4.77043 -3.39895,0.41742 0.83485,-5.18785 0.29814,-1.9678 1.49076,4.47228 z m 0.17889,-0.23852 0.4174,-5.24747 3.27968,-0.71556 z m 31.90226,-5.96303 1.66964,6.26118 -3.16042,-4.77043 z m -42.21832,6.32081 1.49076,-5.60525 3.27967,-0.71556 z m 4.83006,-0.11926 -1.66965,-0.41741 1.90817,-5.60525 1.49076,6.38044 z m -3.22004,-1.72928 3.16041,-4.17412 -0.83483,2.56411 -0.95408,2.92188 -2.98152,0.77519 z m 35.59934,-0.77519 -0.47704,-1.78891 2.20632,-1.13298 -1.07335,5.18784 z m 1.37149,-0.53667 0.53668,-2.38522 1.43112,0.71556 -2.50446,4.29339 z m -24.86586,-2.26596 -2.32559,4.88969 -0.95408,0.35778 1.96781,-3.22003 z m 24.26956,5.3071 2.62373,-4.53191 0.53669,3.16042 0.41741,2.1467 z m 5.96304,0.41742 -2.20632,0.35779 -0.95408,-5.18786 z m -8.34826,-2.38522 -0.95409,2.20632 -1.13296,-3.33929 2.20631,-0.83483 0.83484,-0.29814 z m 2.1467,1.9678 -2.98152,0.35778 0.29815,-0.77519 1.55039,-3.63744 0.1789,0.5963 z m -6.26118,0.23852 -0.77519,-4.05486 1.66964,0.47705 0.95409,0.23852 -1.07335,1.9678 z m 3.04114,0.1789 -2.98151,0 1.90817,-3.39893 0.35777,1.13297 z m -28.74185,-0.0596 -2.74299,-0.17889 -2.44484,0.17889 2.44484,-0.5963 z"
         style="font-size:48px;text-align:start;text-anchor:start;stroke:#fefefe;stroke-width:0.49692628000000000;stroke-miterlimit:4;stroke-opacity:1;stroke-dasharray:none;font-family:POLYA Regular;-inkscape-font-specification:POLYA Regular"
         id="path3766"
         inkscape:connector-curvature="0"
         inkscape:export-filename="C:\xampp\htdocs\fwrfc\img\media2white.png"
         inkscape:export-xdpi="122.92299"
         inkscape:export-ydpi="122.92299" />
      <flowRoot
         xml:space="preserve"
         id="flowRoot3768"
         style="font-size:40px;font-style:normal;font-variant:normal;font-weight:bold;font-stretch:normal;line-height:125%;letter-spacing:0px;word-spacing:0px;fill:#ffffff;fill-opacity:1;stroke:none;font-family:SantElia Rough Alt Bold ThrDMO;-inkscape-font-specification:SantElia Rough Alt Bold ThrDMO Bold"
         transform="matrix(0.87691852,0,0,0.87691852,-96.290652,42.761221)"
         inkscape:export-filename="C:\xampp\htdocs\fwrfc\img\ourRosterWhite.png"
         inkscape:export-xdpi="123.81716"
         inkscape:export-ydpi="123.81716"><flowRegion
           id="flowRegion3770"><rect
             id="rect3772"
             width="266.92432"
             height="96.691971"
             x="-804.17761"
             y="522.59912"
             style="fill:#ffffff;fill-opacity:1" /></flowRegion><flowPara
           id="flowPara3774">Our Roster</flowPara></flowRoot>      <path
         style="fill:none;stroke:#000000;stroke-width:2.00000000999999990;stroke-linecap:round;stroke-linejoin:miter;stroke-opacity:1;stroke-miterlimit:4;stroke-dasharray:none"
         d="m -904.27421,536.89864 149.12353,0"
         id="path3776"
         inkscape:connector-curvature="0"
         transform="matrix(0.87691852,0,0,0.87691852,-96.290652,42.761221)"
         inkscape:export-filename="C:\xampp\htdocs\fwrfc\img\leftsideoflogo.png"
         inkscape:export-xdpi="90"
         inkscape:export-ydpi="90" />
    </g>
  </g>
</svg>
